<?xml version="1.0" encoding="utf-8" ?><svg xmlns="http://www.w3.org/2000/svg" xmlns:xlink="http://www.w3.org/1999/xlink" width="1306" height="1234" viewBox="0 0 1306 1234"><path fill="#393939" d="M476.647 22.1285C478.724 21.8668 481.721 20.9154 483.83 20.4291C500.509 16.583 517.158 12.3797 534.067 9.64717C597.329 -0.675162 661.687 -2.49737 725.432 4.22891C735.307 5.301 751.08 6.72408 760.715 8.86912C815.431 17.6974 868.75 33.6751 919.304 56.3921C1075.39 125.98 1203.21 251.009 1264.9 411.529C1275.71 439.274 1284.33 467.824 1290.67 496.916C1292.01 502.996 1294.57 513.891 1295.29 519.99C1296.38 523.229 1297.9 533.932 1298.45 537.58C1301.26 556.128 1303.18 574.801 1304.2 593.533C1305.26 599.993 1305.33 605.177 1305.4 611.632C1299.25 607.342 1288.98 597.809 1283.08 592.508L1241.95 555.105L1193.41 510.629C1169.22 488.734 1142.55 465.442 1119.05 443.029C1116.29 440.955 1110.02 434.782 1107.13 432.201C1098.04 424.063 1088.81 415.759 1080.29 407.032C1064.22 397.832 1044.71 369.13 1026.74 361.245C1022.01 359.167 1010.54 369.038 1006.22 371.655L1005.56 372.05C998.379 377.53 990.389 382.447 982.853 387.513C949.196 410.139 915.928 433.765 881.838 455.702C879.053 457.704 876.43 459.638 873.509 461.447C865.026 455.144 856.038 446.346 848.139 439.083C828.515 421.041 809.175 402.356 789.732 384.137L613.134 218.017C596.33 201.614 579.372 185.37 562.261 169.288C555.5 162.89 548.842 156.261 541.952 150.034C536.719 145.305 530.611 146.474 525.906 151.207C514.408 162.377 503.209 173.858 491.692 185.007L390.187 284.82L129.921 540.217C106.289 563.69 82.3731 586.875 58.178 609.767C54.5164 613.274 34.5052 633.311 31.7215 635.265C23.466 643.981 13.9503 652.819 5.32 661.295C3.68229 662.813 4.04093 663.013 2.30008 663.11C0.889296 658.229 0.926289 602.607 1.77365 595.445C2.25014 575.445 5.34001 551.566 8.22163 531.728C9.46765 523.15 11.5514 514.196 12.4922 505.766C14.0617 501.025 15.8324 490.982 17.079 485.612C19.9825 473.04 23.2648 460.56 26.9213 448.186C40.8666 401.379 60.7393 356.548 86.056 314.782C90.4786 307.33 98.2527 294.048 103.725 287.728C105.431 283.436 119.633 264.708 123.46 260.764C124.246 256.987 156.1 220.572 160.964 216.161C161.52 215.37 162.271 214.257 162.931 213.549C222.366 149.735 292.472 95.2888 372.265 59.3839C377.294 57.1208 396.649 47.8218 401.059 47.393C405.393 44.9994 413.703 42.3215 418.492 40.4356C437.703 32.8704 456.951 27.8305 476.647 22.1285Z"/><path fill="#161516" d="M919.304 56.3921C1075.39 125.98 1203.21 251.009 1264.9 411.529C1275.71 439.274 1284.33 467.824 1290.67 496.916C1292.01 502.996 1294.57 513.891 1295.29 519.99C1294.18 518.83 1294.22 518.638 1293.52 517.168L1292.49 517.266C1292.46 515.323 1289.64 503.113 1289.09 500.536C1281.44 464.954 1270.51 430.157 1256.43 396.593C1201.79 268.916 1107.08 162.493 986.609 93.4068C977.16 87.9181 966.842 81.5838 957.015 77.0115C944.385 71.1358 932.061 63.9881 919.222 58.7806L919.304 56.3921Z"/><path fill="#161516" d="M103.725 287.728C102.111 296.322 95.5111 304.471 90.7289 311.916C86.0349 319.38 81.5151 326.952 77.173 334.627C56.4103 371.198 41.3019 410.557 28.7746 450.594C23.6626 466.932 19.5799 482.631 16.4185 499.467C15.8932 502.23 15.1961 504.547 12.4922 505.766C14.0617 501.025 15.8324 490.982 17.079 485.612C19.9825 473.04 23.2648 460.56 26.9213 448.186C40.8666 401.379 60.7393 356.548 86.056 314.782C90.4786 307.33 98.2527 294.048 103.725 287.728Z"/><path fill="#161516" d="M760.715 8.86912C815.431 17.6974 868.75 33.6751 919.304 56.3921L919.222 58.7806C913.695 57.2711 900.344 50.9484 894.371 48.6714C877.612 42.282 859.595 35.0411 842.381 30.0962C823.849 24.9299 805.188 20.2402 786.415 16.0317C781.191 14.8552 762.758 13.1738 760.715 8.86912Z"/><path fill="#161516" d="M881.838 455.702C881.913 454.608 882.129 453.378 883.09 452.746C906.536 437.331 930.051 420.696 953.482 405.368C961.724 399.976 998.426 372.14 1005.56 372.05C998.379 377.53 990.389 382.447 982.853 387.513C949.196 410.139 915.928 433.765 881.838 455.702Z"/><path fill="#161516" d="M1292.49 517.266L1293.52 517.168C1294.22 518.638 1294.18 518.83 1295.29 519.99C1296.38 523.229 1297.9 533.932 1298.45 537.58C1301.26 556.128 1303.18 574.801 1304.2 593.533C1302.57 591.421 1301.89 590.999 1301.63 588.131C1299.96 569.645 1298.23 551.193 1295.13 532.879C1294.26 527.723 1293.09 522.448 1292.49 517.266Z"/><path fill="#161516" d="M401.059 47.393C405.393 44.9994 413.703 42.3215 418.492 40.4356C437.703 32.8704 456.951 27.8305 476.647 22.1285C470.212 28.4491 456.349 30.1152 448.015 33.0639C442.941 34.8591 431.564 35.8862 427.464 38.7912L429.184 39.272C424.541 41.1394 410.298 47.1697 406.093 47.0831L411.445 45.3386C407.804 45.9595 403.923 47.8296 401.059 47.393Z"/><path fill="#161516" d="M160.964 216.161L161.544 217.192C159.101 222.059 127.956 259.498 123.46 260.764C124.246 256.987 156.1 220.572 160.964 216.161Z"/><path fill="#161516" d="M5.32 661.295C3.68229 662.813 4.04093 663.013 2.30008 663.11C0.889296 658.229 0.926289 602.607 1.77365 595.445C2.2493 602.731 3.27741 609.675 2.86434 616.932C2.50695 623.211 2.72158 654.381 5.21195 658.628L5.32 661.295Z"/><path fill="#161516" d="M1080.29 407.032C1080.94 407.047 1082.68 407.064 1083.25 407.528C1094.7 416.829 1105.83 427.807 1116.53 438.046C1118.41 439.843 1118.91 440.686 1119.05 443.029C1116.29 440.955 1110.02 434.782 1107.13 432.201C1098.04 424.063 1088.81 415.759 1080.29 407.032Z"/><path fill="#161516" d="M5.21195 658.628C8.63698 654.219 26.3285 636.833 31.7215 635.265C23.466 643.981 13.9503 652.819 5.32 661.295L5.21195 658.628Z"/><path fill="#D2D2D1" d="M1054.75 608.45C1063.07 608.183 1070.36 610.279 1077.82 613.889C1089.59 619.579 1100.78 627.77 1111.36 635.383C1165.18 674.104 1214.33 722.112 1257.86 771.913C1261.78 776.396 1275.22 789.451 1276.46 794.323C1279.34 805.632 1245.23 876.577 1238.45 889.453C1231.5 902.396 1224.12 915.105 1216.32 927.559C1203.84 947.211 1190.98 963.933 1176.48 982.048C1171.76 974.611 1165.86 961.485 1161.96 953.182C1151.81 931.208 1142.04 909.059 1132.66 886.746C1098.87 807.112 1066.92 722.8 1047.34 638.419C1044.95 628.132 1042.92 613.185 1054.75 608.45Z"/><path fill="#D2D2D1" d="M716.095 1112.72C699.552 1090.05 683.166 1069.37 666.982 1045.99C630.673 993.834 597.11 939.817 566.431 884.161C520.26 801.604 477.554 713.498 454.274 621.425C447.447 594.425 429.182 511.443 459.273 493.21C495.434 471.298 565.006 506.78 599.267 523.8C677.822 564.351 750.126 616.215 818.263 671.348C879.207 721.232 938.411 773.205 995.771 827.174C1012.85 843.254 1029.51 860.058 1046.35 876.398C1083.22 912.179 1120 948.074 1155.4 985.318C1159.27 989.393 1162.58 992.615 1165.9 997.199C1142.36 1027.46 1114.27 1054.77 1084.79 1079.18C983.975 1161.93 861.562 1214.06 732.042 1229.39C721.636 1230.69 711.187 1231.63 700.716 1232.2C695.408 1232.51 683.616 1232.83 678.863 1234L632.102 1234C621.888 1231.56 601.837 1231.77 590.447 1230.64C563.022 1227.73 535.779 1223.31 508.842 1217.4C340.099 1179.45 192.704 1077.41 97.774 932.824C78.1079 902.504 61.1695 870.499 47.1581 837.186C81.6737 798.251 127.235 761.652 180.791 757.108C227.102 753.178 274.707 780.703 311.853 805.984C429.83 886.275 536.002 983.467 650.891 1068.01C669.448 1081.67 695.859 1102.45 716.095 1112.72Z"/></svg>