<?xml version="1.0" encoding="utf-8" ?><svg xmlns="http://www.w3.org/2000/svg" xmlns:xlink="http://www.w3.org/1999/xlink" width="1283" height="1173" viewBox="0 0 1283 1173"><path d="M1280.61 2.5525L1281.13 2.69653C1281.15 5.76502 1202.16 124.241 1193.56 137.18C1192.31 272.125 1194.07 408.185 1194.06 543.224L1194.06 674.415L1194.07 712.413C1194.07 721.971 1193.78 731.206 1194.96 740.726C1199.68 778.838 1228.84 804.838 1267.26 805.463C1262.31 809.265 1253.01 814.417 1247.47 817.596C1233.65 825.495 1219.71 833.188 1205.66 840.673L1115.12 890.743L1025.01 940.519C1012.98 947.141 997.996 956.503 985.92 962.072C987.25 940.044 986.368 912.572 986.288 890.117L986.223 777.059L985.948 407.985C911.295 450.43 835.656 495.064 760.539 536.274C760.491 537.121 760.454 537.968 760.428 538.815C759.612 572.36 760.325 608.624 760.331 642.426L760.322 838.511L760.357 941.249C760.373 956.497 760.273 971.869 760.719 987.077C762.085 1033.68 788.761 1058.35 833.904 1059.23C827.527 1062.12 823.156 1065.44 817.212 1068.92L779.966 1090.79L684 1147.52C670.582 1155.4 654.471 1165.62 641.004 1172.84C635.156 1169.93 629.046 1165.89 623.33 1162.52C570.6 1131.41 518.284 1099.54 465.337 1068.8C460.901 1066.22 455.193 1063.24 451.29 1060.05C452.885 1058.54 457.659 1059.06 460.474 1058.57C466.486 1057.51 472.575 1056.01 478.243 1053.76C485.804 1050.69 492.7 1046.19 498.547 1040.49C523.999 1015.85 519.904 982.242 519.935 949.749L519.95 862.684C519.927 754.092 518.854 644.012 520.004 535.574L462.724 503.126L362.478 446.302C340.57 433.898 316.098 420.769 294.834 407.676C295.886 469.865 294.801 534.201 294.598 596.516L293.647 961.938C287.927 957.819 276.181 951.661 269.702 948.057L223.925 922.888L83.2045 845.179C75.9827 841.187 15.3503 809.685 14.0108 805.751C16.504 804.822 22.2292 805.33 25.5291 804.65C40.7405 801.665 54.7205 794.222 65.6906 783.267C76.2547 772.531 83.1364 758.716 85.3432 743.814C88.0718 725.827 87.0414 691.823 87.0252 672.158L87.0202 552.562L86.9778 136.902C79.8961 127.352 73.1297 116.129 66.6476 106.104L37.7158 61.9511C31.6828 52.7001 1.92604 9.49173 0 2.72574C6.18212 6.56912 18.9526 12.5179 26.4088 16.7328L119.643 68.3757L365.334 202.659L553.626 305.284L609.636 335.76C618.707 340.71 632.291 348.647 641.453 352.689C683.242 328.933 727.226 305.616 769.5 282.55L1008.47 151.514L1176.08 59.4955C1194.58 49.2681 1213.1 39.0691 1231.55 28.7613C1247.64 19.7733 1263.93 10.4329 1280.61 2.5525Z"/></svg>