<?xml version="1.0" encoding="utf-8"?>
<svg xmlns="http://www.w3.org/2000/svg" xmlns:xlink="http://www.w3.org/1999/xlink" width="1165"
  height="1005" viewBox="0 0 1165 1005">
  <path fill="#00B050"
    d="M710.866 245.262C728.789 184.223 757.657 118.973 790.962 64.6109C804.532 45.2606 818.745 20.7894 838.394 7.12057C852.585 -2.75186 874.134 1.3879 887.406 10.7171C906.381 24.0549 922.217 40.2497 937.093 57.8222C1027.08 164.125 1082.3 296.282 1122.33 428.427C1124.2 434.631 1126.66 441.9 1127.93 448.091C1128.17 450.38 1128.51 451.669 1127.77 453.86C1126.55 455.03 1127.25 454.688 1125.6 454.944C1116.84 435.932 1105.44 417.339 1089.21 403.759C1018.8 344.845 908.414 337.618 826.745 375.819C790.008 393.003 753.966 412.95 718.717 432.133L607.96 491.601L480.468 559.526C451.602 575.112 413.527 594.348 388.737 614.983C359.414 639.125 336.937 670.535 323.55 706.078C303.633 760.17 308.502 829.125 333.154 880.908C353.182 922.976 383.663 957.328 419.782 986.469C428.231 993.285 437.984 998.765 445.054 1004.46L444.221 1004.36C433.753 1003.06 423.483 1003.76 413.269 1003.2C403.267 1002.66 392.903 1002.05 382.892 1001.41C316.606 997.189 249.069 992.377 184.805 974.559C172.467 971.138 153.933 965.285 142.932 959.244C137.793 957.286 130.259 951.157 126.543 947.068C104.544 922.863 118.847 888.191 140.596 869.148C134.239 849.238 132.114 820.578 130.437 799.769C129.366 793.314 132.546 769.108 130.028 764.448C121.015 747.774 106.664 726.705 97.6009 710.31C62.5482 646.9 30.0686 581.876 10.0623 512.013C7.47602 502.981 3.22066 488.925 2.78953 479.828C1.43659 476.461 1.69545 469.62 1.34342 466.023C-0.107419 451.196 9.97583 434.957 25.3662 431.076C73.8009 418.863 133.751 419.729 183.351 423.436C207.854 425.477 232.28 428.349 256.588 432.048C271.987 434.372 287.339 437.005 302.632 439.945C311.305 441.677 330.81 446.585 338.482 446.651L339.359 446.654C347.474 441.581 356.608 433.283 364.048 426.991C399.062 397.382 436.655 369.84 475.483 345.432C548.124 299.752 627.581 265.938 710.866 245.262Z" />
  <path fill="#00B050"
    d="M831.838 561.293C834.238 553.101 838.967 547.922 845.145 542.337C866.916 522.655 903.526 525.441 923.409 546.462C929.843 553.264 936.784 564.979 941.836 572.978L963.49 607.401C971.472 619.918 979.38 632.481 987.215 645.091C998.651 663.47 1011.89 681.21 1004.82 703.981C1000.82 716.868 991.207 728.024 979.314 734.352C975.253 736.49 963.734 740.639 959.161 740.549C949.841 742.527 935.187 739.288 926.504 735.529C908.518 727.743 899.729 711.244 889.575 695.326C879.441 679.441 869.487 663.441 859.715 647.331C850.526 632.441 839.466 616.61 831.8 600.972C826.694 590.555 826.721 571.902 831.838 561.293Z" />
  <path fill="#00B050"
    d="M561.133 691.736C574.085 690.074 588.602 693.571 599.385 700.98C606.591 705.932 611.117 712.93 615.784 720.146C626.428 736.604 636.584 753.368 647.037 769.948C654.645 781.85 662.192 793.791 669.678 805.77C677.35 817.799 688.123 832.522 690.447 846.665C692.37 858.983 689.315 871.56 681.957 881.625C672.256 894.955 659.788 899.853 644.26 902.336C631.456 903.789 615.275 900.444 604.453 893.072C591.916 884.531 585.356 873.028 577.545 860.554L560.461 833.454C552.049 820.263 543.74 807.007 535.535 793.686C530.81 786.09 525.872 778.632 521.53 770.658C512.559 754.055 510.394 730.602 521.719 714.556C532.396 699.428 543.776 694.817 561.133 691.736Z" />
</svg>