<?xml version="1.0" encoding="utf-8"?>
<svg xmlns="http://www.w3.org/2000/svg" xmlns:xlink="http://www.w3.org/1999/xlink" width="1400"
  height="1400" viewBox="0 0 1400 1400">
  <path fill="#00B050" transform="scale(1.00575 0.9908)"
    d="M1006.52 541.552C1090.75 495.619 1165.76 470.159 1261.86 497.501C1309.2 510.967 1359.82 543.017 1392 580.734L1392 1126.1L1392 1145.87L1391.88 1146.45C1390.32 1154.21 1389.89 1163.32 1388.32 1171.25C1384.24 1191.81 1375.36 1224.9 1365.33 1243.12C1349.95 1278.5 1319.15 1321.13 1289.66 1346.18C1283.16 1352.63 1273.53 1360.53 1265.86 1365.88C1259.17 1371.41 1250.17 1376.51 1242.62 1380.95C1216.95 1396.32 1188.46 1406.4 1158.83 1410.6C1150.93 1411.72 1142.62 1412.04 1134.6 1413L821.866 1413L562.942 1413C558.795 1410.14 554.817 1406.52 550.994 1403.2C533.961 1387.31 517.984 1370.33 503.164 1352.36C494.175 1342.41 467.846 1308.07 461.055 1295.73C453.739 1285.53 444.716 1269.95 438.687 1258.9C436.199 1254.67 433.656 1249.73 431.398 1245.35L430.86 1244.39C423.549 1231.26 418.202 1218.12 412.287 1204.38C380.926 1131.59 368.042 1039.38 390.075 961.863C392.041 954.003 397.827 936.634 401.664 929.942C403.381 924.104 408.192 914.778 411.23 909.35C431.129 874.888 462.093 837.862 495.208 815.044C550.64 776.849 616.456 746.057 675.757 714.415L888.54 602.986L959.037 566.361C974.578 558.193 990.698 549.115 1006.52 541.552ZM798.613 1238.6C839.41 1236.79 873.084 1188.76 853.948 1150.66C848.132 1139.08 841.78 1128.16 835.382 1116.9C824.949 1098.32 814.419 1079.8 803.793 1061.33C795.432 1046.83 787.356 1032.09 779.06 1017.63C769.651 1001.22 761.219 984.157 746.746 971.614C735.977 962.281 720.335 954.542 705.819 955.491C704.931 955.553 704.044 955.642 703.162 955.76C684.396 957.943 668.29 965.76 656.459 980.922C645.514 995.121 640.7 1013.11 643.091 1030.88C643.657 1035.02 647.466 1044.56 649.521 1048.28C678.742 1101.25 707.917 1154.43 738.185 1206.79C749.702 1226.71 775.598 1240.74 798.613 1238.6ZM1177.41 1041.08C1183.64 1040.02 1189.46 1038.88 1195.28 1036.26C1220.33 1025 1238.18 996.899 1233 969.147C1232.11 964.226 1230.6 959.439 1228.49 954.903C1224.28 945.921 1216.69 933.448 1211.66 924.397L1180 867.57L1154.57 822.227C1138 792.634 1122.19 761.555 1082.06 765.3C1074.41 766.674 1068.41 767.825 1061.45 771.431C1034.45 785.418 1019.56 813.951 1025.16 844.119C1026.13 849.296 1027.76 854.326 1030.02 859.079C1033.8 867.039 1040.37 878.108 1044.76 886.004L1071.08 933.683C1080.32 950.817 1089.68 967.884 1099.16 984.882C1107.84 1000.39 1116.48 1019.11 1131.59 1029.37C1146.89 1039.76 1159.29 1042.05 1177.41 1041.08Z" />
  <path fill="#00B050" transform="scale(1.00575 0.9908)"
    d="M256.759 0L265.277 0L1144.79 0L1145.01 0.625531C1152.58 0.517477 1173.5 0.791313 1180.19 3.25741C1191.04 4.27879 1202.22 7.45208 1212.65 10.7343C1258.98 25.3211 1301.04 56.4605 1331.89 93.6543C1363.86 132.202 1383 181.184 1390.26 230.405C1391.04 235.669 1390.62 242.355 1392 247.336L1392 406.01C1380.19 400.597 1365.93 394.429 1354.57 388.897C1353.61 388.573 1352.66 388.211 1351.73 387.812C1343.62 384.417 1342.88 380.302 1339.56 372.281C1333.22 359.262 1326.69 346.335 1319.97 333.504L1315.73 325.037C1309.79 315.282 1304.29 303.899 1298.36 293.773C1283.93 267.533 1266.99 242.834 1250.24 218.084C1248.56 216.204 1243.69 208.811 1241.86 206.248L1224.27 182.08C1221.23 178.96 1213.17 168.235 1210.05 164.288C1201.74 153.6 1193.13 143.156 1184.22 132.969C1178.88 127.674 1167.79 114.649 1162.68 108.695L1146.28 91.3554C1132 77.8157 1109.09 53.4713 1088.79 52.1089C1077 51.3169 1067.82 57.7382 1059.44 65.124C1051.96 72.9438 1046.07 80.6545 1039.36 89.1216C1034.37 97.2138 1029.28 105.249 1024.1 113.226C1017.92 124.314 1011.92 134.848 1006.07 146.128C998.456 160.81 992.415 175.665 985.334 190.403C961.61 247.955 940.977 306.217 924.007 366.147C921.895 373.605 922.602 375.279 915.105 376.644C913.463 377.683 896.08 382.412 892.671 383.469C880.919 387.222 869.196 391.067 857.504 395.002C812.748 412.435 773.646 426.98 730.462 449.373C696.944 466.753 669.895 483.833 637.948 503.38C626.063 511.16 614.338 519.183 602.781 527.444C597.883 530.885 588.623 537.807 583.712 540.569C574.988 548.214 563.912 556.165 554.45 563.21C532.876 579.275 514.822 597.689 495.165 615.71C484.44 614.653 465.475 608.984 453.763 606.547C422.678 599.423 391.451 592.931 360.102 587.073C345.531 584.432 330.76 582.385 316.133 579.814C287.548 576.169 262.278 574.22 233.657 571.951C219.906 572.362 205.995 571.534 192.535 571.672C162.59 571.978 118.664 575.057 90.0149 584.276C71.5867 590.537 62.5369 597.347 62.8828 618.641C63.1299 633.858 66.646 650.378 69.8211 665.271C78.7314 706.414 90.2178 746.956 104.212 786.658C120.566 833.959 142.265 888.663 164.003 933.527C174.143 954.784 184.84 975.772 196.084 996.466C202.927 1009.04 209.913 1021.6 217.408 1033.79C220.665 1039.09 223.341 1041.28 222.27 1047.8C213.624 1100.47 216.476 1159.79 229.68 1211.65C230.104 1213.16 230.937 1214.97 229.869 1216.24C224.75 1222.34 218.835 1228.15 214.517 1234.85C198.586 1259.56 194.244 1291.82 197.979 1320.48C202.504 1355.67 218.824 1388.29 244.276 1413L237.7 1413C228.505 1410.43 219.552 1409.33 209.929 1406.26C192.641 1401.99 170.857 1392.39 155.744 1383.07C142.027 1375.3 132.201 1368.33 119.669 1358.73C112.239 1353.41 98.2943 1340.42 91.7339 1333.97C80.5842 1322.86 72.6665 1313.38 62.9087 1301.07C44.3421 1278.11 24.7626 1238.94 16.2728 1211C12.5626 1204.51 6.87681 1178.99 5.40339 1170.56C4.45729 1168.9 3.66072 1160.76 3.40199 1158.45C1.11866 1147.61 1.82572 1137.71 0 1127.97L0 476.535L0 254.866C1.42223 246.284 1.55168 235.554 3.15061 226.264C7.90722 198.627 16.2218 164.351 29.9432 139.917C32.0559 132.122 44.6885 113.239 49.7652 106.053C52.8148 101.199 61.1575 90.5777 65.3357 86.8526C66.1491 84.2201 72.3853 78.2477 74.6648 76.4636C84.1682 66.4266 92.2916 58.8932 103.549 50.7283C133.188 25.9993 179.681 7.77889 217.994 3.16133C225.709 0.260883 246.569 1.17999 256.759 0Z" />
</svg>